<svg xmlns="http://www.w3.org/2000/svg" xmlns:xlink="http://www.w3.org/1999/xlink" version="1.1" x="0px" y="0px" viewBox="0 0 100 125" enable-background="new 0 0 100 100" xml:space="preserve"><g><g><path d="M41.5,72c-3.4,0-6.2,2.8-6.2,6.3c0,3.5,2.8,6.3,6.2,6.3c3.4,0,6.2-2.8,6.2-6.3C47.7,74.8,45,72,41.5,72z M70.8,72    c-3.4,0-6.2,2.8-6.2,6.3c0,3.5,2.8,6.3,6.2,6.3c3.4,0,6.2-2.8,6.2-6.3C77,74.8,74.2,72,70.8,72z M86,36.5c0,0-2.9-2.5-4.8,3.5    c-3,11.1-6.8,22-6.8,22H38.6l-4.3-20.3l-3.2-18.2c-0.2-1.4-1.2-2.6-2.6-3l-14.7-3.8c-1.9-0.5-3.8,0.2-4.2,2.1    c-0.5,1.9,0.6,3.6,2.5,4.1l13.2,3.2l6.8,38.1c0,0,0.2,4.3,4,4.3h40.2c3.2,0,3.8-3.4,3.8-3.4l7.6-23.8C87.7,41.3,90.4,37.7,86,36.5    z M53.2,31l-9.2,9.2c-0.8,0.8-0.8,2,0,2.8l1.9,1.9c0.8,0.8,2,0.8,2.8,0l9.2-9.2l9.2,9.2c0.8,0.8,2,0.8,2.8,0l1.9-1.9    c0.8-0.8,0.8-2,0-2.8L62.6,31l9.2-9.2c0.8-0.8,0.8-2,0-2.8l-1.9-1.9c-0.8-0.8-2-0.8-2.8,0l-9.2,9.2l-9.2-9.2c-0.8-0.8-2-0.8-2.8,0    L44.1,19c-0.8,0.8-0.8,2,0,2.8L53.2,31z"/></g></g><text x="0" y="115" fill="#000000" font-size="5px" font-weight="bold" font-family="'Helvetica Neue', Helvetica, Arial-Unicode, Arial, Sans-serif">Created by Montu Yadav</text><text x="0" y="120" fill="#000000" font-size="5px" font-weight="bold" font-family="'Helvetica Neue', Helvetica, Arial-Unicode, Arial, Sans-serif">from the Noun Project</text></svg>